<?xml version="1.0" encoding="utf-8"?><svg version="1.1" id="Layer_1" xmlns="http://www.w3.org/2000/svg" xmlns:xlink="http://www.w3.org/1999/xlink" x="0px" y="0px" viewBox="0 0 1600 602" enable-background="new 0 0 1600 602" xml:space="preserve" height="602" width="1600"><rect x="0" fill="#ffffff" width="1600" height="602"/><g><g><g><rect x="1138" y="256.1" transform="matrix(0.2061 0.9785 -0.9785 0.2061 1264.1117 -1043.8833)" width="274.8" height="2"/></g><g><rect x="1238.4" y="167.8" transform="matrix(0.9318 0.3629 -0.3629 0.9318 154.3116 -483.9844)" width="254.2" height="2"/></g><g><rect x="1392.9" y="177" transform="matrix(0.7 0.7141 -0.7141 0.7 634.7314 -904.4417)" width="2" height="252.4"/></g><g><rect x="984.9" y="347.8" transform="matrix(0.9646 0.2638 -0.2638 0.9646 132.6465 -290.2761)" width="324.6" height="2"/></g><g><rect x="202.3" y="179.7" transform="matrix(0.7104 0.7038 -0.7038 0.7104 216.7137 -165.2567)" width="213.7" height="2"/></g><g><rect x="173.6" y="90.8" transform="matrix(0.8821 0.4711 -0.4711 0.8821 122.0023 -56.8827)" width="2" height="248.9"/></g><g><rect x="368.6" y="333.8" transform="matrix(0.9169 0.3991 -0.3991 0.9169 180.6721 -198.1978)" width="395.4" height="2"/></g><g><rect x="249.5" y="151.6" transform="matrix(0.2491 0.9685 -0.9685 0.2491 469.4446 -24.5046)" width="2" height="277.8"/></g><g><rect x="538.7" y="54.7" transform="matrix(0.2573 0.9663 -0.9663 0.2573 608.3022 -362.0698)" width="2" height="320.1"/></g><g><path fill="#40C4FF" d="M1102.1,269c0,0-35.9,24.4-47.1,24.6c-11.2,0.2-40.1-17.9-40.1-17.9l-2.6,9c0,0,22.2,30.3,49.4,25.4c27.2-5,44.2-15.4,44.2-15.4L1102.1,269z"/></g><g><g><rect x="598" y="292.6" transform="matrix(0.2163 0.9763 -0.9763 0.2163 851.7219 -473.7906)" width="246" height="2"/></g><g><rect x="868.1" y="226.9" transform="matrix(0.4053 0.9142 -0.9142 0.4053 845.7611 -580.5229)" width="2" height="265.9"/></g><g><rect x="680.3" y="238.8" transform="matrix(0.913 0.4081 -0.4081 0.913 171.1668 -322.9184)" width="324.5" height="2"/></g></g><g><rect x="934" y="267.1" fill="#F4B400" width="113.3" height="77.8"/></g><g><rect x="1427.3" y="173.2" fill="#F4B400" width="113.3" height="77.8"/></g><g><rect x="690.9" y="374.8" fill="#FF5722" width="113.3" height="77.8"/></g><g><rect x="1190.4" y="83.8" fill="#FF5722" width="113.3" height="77.8"/></g><g><rect x="637.7" y="134.7" fill="#40C4FF" width="113.3" height="77.8"/></g><g><circle fill="#F4B400" cx="694.4" cy="173.5" r="21"/></g><g><rect x="328.4" y="217" fill="#F4B400" width="113.3" height="77.8"/></g><g><g><rect x="59.4" y="286.2" fill="#40C4FF" width="113.3" height="77.8"/></g><g><path d="M138.1,344.2H93.9L116,306L138.1,344.2z"/></g></g><g><g><rect x="176.6" y="66.6" fill="#FF5722" width="113.3" height="77.8"/></g><g><circle fill="#F4B400" cx="233.3" cy="105.5" r="21"/></g></g><g><g><rect x="1247.1" y="352.7" fill="#40C4FF" width="113.3" height="77.8"/></g><g><circle fill="#FF5722" cx="1303.7" cy="391.6" r="21"/></g></g><g><rect x="728.4" y="394.6" fill="#40C4FF" width="38.2" height="38.2"/></g><g><rect x="1227.9" y="103.5" width="38.2" height="38.2"/></g><g><path d="M1012.7,325.1h-44.2l22.1-38.2L1012.7,325.1z"/></g><g><path fill="#FFFFFF" d="M1506.1,231.2h-44.2L1484,193L1506.1,231.2z"/></g><g><g><path fill="#40C4FF" d="M1119.6,264.3c-8.5-0.2-11.6-0.2-17.5,4.7c-10.4,8.4-22.1,27.1-21.1,35.7c1.6,12.4,15.2,14.9,11.4,52.9h44.6C1119.1,327.6,1154.7,286.7,1119.6,264.3z"/></g><g><path fill="#FF5722" d="M1142.2,456.6c-4.2-19.3,2.5-16,3.9-45.4c1.3-27.9,2.2-34.7-9.1-53.5h-44.6c-1.4,14-3.4,14.4-11,39.9c-7.8,26-10.8,38.8-8.9,54.8c1.9,16,6.5,35,9.1,48.1c2.6,13.2,2.2,20.3-7.6,24s-12.9,11-12.9,11h39.7c0,0-2.4-31.7-3.7-53.3c-1.4-21.6-5.8-21.4,1.3-39.1c7.1-17.7,12-37.1,12-37.1s3.3,43.4,9.8,59.1c6.9,16.8,27.1,56.8,10.4,60.9c-12.5,3-12.9,9.5-12.9,9.5h37c0,0-4.8-16.4-5-38.2S1144.1,465.2,1142.2,456.6z"/></g><g><path fill="#FF7043" d="M1117.5,224.8c-2.4-10.4-11.6-22.2-25.4-11.1c-7.5,6-4,32.7,5.4,37c12.8,5.8,4.5,18.3,4.5,18.3s1.9,2.7,9,1.8c5.2-0.6,8.5-6.4,8.5-6.4s-3.2-4-3.9-12.6C1114.9,241.8,1120.9,239.5,1117.5,224.8z"/></g><g><path d="M1081.6,500.5c2.6,13.2,2.2,20.3-7.6,24c-9.7,3.7-12.9,11-12.9,11h39.7c0,0-2.4-31.7-3.7-53.3c-0.3-4.7-0.7-8.3-1.2-11.4h-20.4C1077.5,481.5,1080,492.2,1081.6,500.5z"/></g><g><path fill="#FF5722" d="M1142.2,456.6c-4.2-19.3,2.5-16,3.9-45.4c1.3-27.9,2.2-34.7-9.1-53.5h-44.6c-1.4,14-3.4,14.4-11,39.9c-7.8,26-10.8,38.8-8.9,54.8c0.7,5.9,1.8,12.2,3,18.4h20.4c-1.6-11-3.1-13.8,2.5-27.7c7.1-17.7,12-37.1,12-37.1s3.3,43.4,9.8,59.1c0.7,1.7,1.5,3.6,2.4,5.7h23.6C1144.7,465,1143.1,460.6,1142.2,456.6z"/></g><g><path d="M1146.2,470.8h-23.6c8.1,18.7,23,51.5,7.9,55.2c-12.5,3-12.9,9.5-12.9,9.5h37c0,0-4.8-16.4-5-38.2C1149.5,485.6,1147.9,477.3,1146.2,470.8z"/></g></g><g><path fill="#FF7043" d="M1012.4,262.8c-4.8,0.6-6.2,1.8-6.4,5.9c-0.2,3.1,1.3,6.6,4,8.9c0.8,0.7,1.7,1.3,2.6,1.6c3.2,1.2,6.2-0.3,8.1-2.4c0.9-1,1.7-2.1,1.9-3.5C1023.9,265.9,1020.5,261.7,1012.4,262.8z"/></g><g><path fill="#40C4FF" d="M1047.7,319.3c0,0,26.5,4.3,38.3,1.3s19.9-15.7,27.8-23.5s18.6-10.1,17,2s-18.3,27.8-25.5,33s-36.9,3.6-57.2-1L1047.7,319.3z"/></g><g><path fill="#FF7043" d="M1050.2,323.1c-0.3-4.9-0.2-7.5-4.2-7.8c-3-0.2-6.6,1.3-9,3.9c-0.7,0.8-1.4,1.7-1.8,2.6c-1.4,3.2,0,6.3,1.9,8.2c0.9,0.9,2,1.8,3.3,2C1047.6,333.6,1050.7,331.4,1050.2,323.1z"/></g><g><path fill="#F4B400" d="M1083.5,215.5c0.8-5.9,14.6-15.8,27.5-9.8c12.9,5.9,12.3,36.4,31.3,44.1c19,7.8,25.5,19.1,24,30.4c-1.5,11.3-19.7,17.5-32.9,5.5c-13.2-12.1-23.9-44.7-28.5-55.4S1081.5,230.2,1083.5,215.5z"/></g><g><rect x="365.9" y="236.8" fill="#FFFFFF" width="38.2" height="38.2"/></g><g><g><g><path d="M553.3,255.9c-14.4,0.7-34.4,2-39.6,15.4c-5.2,13.4-11.5,32.2-13.7,42.9s20.8,32.8,20.8,32.8l0.2,21.4h62.7l-1.6-58.3C582.3,291.8,586.3,254.2,553.3,255.9z"/></g><g><path fill="#F4B400" d="M536.4,217.9c-0.8-11.6,1.2-25.1,18.1-24.9c22.6,0.3,15.7,37.5,10,46.8c-6.3,10.3-3.2,16.4-3.2,16.4s-2,4.5-9.3,5.1c-5.4,0.5-10.5-4.9-10.5-4.9s2.6-2.7,1.4-11.9C541.7,233.8,537.5,234.5,536.4,217.9z"/></g><g><path fill="#FF5722" d="M583.8,368.4c0,0,6.1,42.8,3.7,81.8c-1.5,24.7-8.6,67.5-4.9,72.9s14.2,5.4,14.2,12.2h-31.6c-1.8-27.1-0.1-27,0.1-64.7c0.1-10.9-3.6-41.3-5.6-52.6c-0.8-4.4-7.1-4.4-7.9,0c-2.2,11.9-4.5,42-4.7,46.7c-0.4,9-12.2,51.5-7.2,58.7c5.4,7.7,12.8,5.7,12.8,12h-29.8c0,0,0.3-40.7,1.6-64.5c1.9-33.2-4.9-53.2-3.4-102.4L583.8,368.4z"/></g><g><path d="M554.5,193c7.2,0.1,11.4,4,13.6,9.5c-4.2,1.6-11.1,3.5-18,2.5l-1.8,12.6c0,0-4.6-6-6.1-0.3c-1.5,5.8,2.2,11.3,2.2,11.3l-3.3,8.2c-2.2-4.6-4-9.1-4.7-19C535.7,206.3,537.7,192.8,554.5,193z"/></g><g><path d="M561.3,256.2c0,0,28.3,1.7,43.5-3.4c15.2-5.1,43.6-41.7,43.6-41.7l10,11.5c0,0-27.8,34.7-39.7,42c-11.9,7.3-36.7,17.4-36.4,39C582.6,325.3,561.3,256.2,561.3,256.2z"/></g><g><path fill="#F4B400" d="M560.1,345.1c0,0,6.3-1.7,10,0c1.5,0.7-3.2,2.9-2.4,4.3c1.4,2.3,8,4.1,8.1,5.9c0.3,5.4-12,6.5-21,4.1L560.1,345.1z"/></g><g><path fill="#40C4FF" d="M522.9,535.4h29.8c0-6.3-7.5-4.3-12.8-12H523C522.9,530.6,522.9,535.4,522.9,535.4z"/></g><g><path fill="#40C4FF" d="M582.8,523.4h-18.3c0.1,3.4,0.3,7.3,0.6,12h31.6C596.7,528.7,586.6,528.6,582.8,523.4z"/></g><g><path fill="#FF5722" d="M582.6,523.2c-3.7-5.4,3.4-48.2,4.9-72.9c2.4-39-3.7-81.8-3.7-81.8h-62.7c-1.5,49.2,5.3,69.2,3.4,102.4c-0.9,15.7-1.3,38.6-1.5,52.5h16.8c-5-7.2,6.8-49.7,7.2-58.7c0.2-4.7,2.5-34.8,4.7-46.7c0.8-4.4,7.1-4.4,7.9,0c2,11.3,5.7,41.7,5.6,52.6c-0.2,31.2-1.4,36.5-0.8,52.7h18.3C582.7,523.3,582.6,523.3,582.6,523.2z"/></g></g><g><path fill="#F4B400" d="M648.4,211.1c0,0,0.6-5.7,1.1-10.2c0.5-4.5,3.6-1.2,4.7,2.1c1.1,3.3,6.5-11.9,14-5.9c7.5,6-9.7,25.6-9.7,25.6L648.4,211.1z"/></g></g></g></g></svg>